<?xml version="1.0" encoding="UTF-8"?>
<svg id="Layer_2" data-name="Layer 2" xmlns="http://www.w3.org/2000/svg" viewBox="0 0 132.65 22.37">
  <g id="Layer_1-2" data-name="Layer 1">
    <g>
      <path d="M11.54,8.3v8.93h-3.36v-8.09c0-1.42-.77-2.18-2.18-2.18-1.54,0-2.64,1.06-2.64,2.86v7.42H0V4.46h3.22v1.87h.05c.82-1.56,2.23-2.21,3.84-2.21,2.71,0,4.44,1.78,4.44,4.18Z"/>
      <path d="M24.58,10.85c0,4.18-2.66,6.72-6.53,6.72s-6.53-2.54-6.53-6.72,2.74-6.72,6.53-6.72,6.53,2.54,6.53,6.72ZM18.05,14.74c2.09,0,3.07-1.46,3.07-3.89s-1.01-3.89-3.1-3.89c-1.94,0-3.05,1.39-3.05,3.89s1.03,3.89,3.07,3.89Z"/>
      <path d="M34.87,14.86c0,1.25.26,1.68.74,1.87v.5h-3.62c-.17-.5-.29-.96-.31-1.51-1.22,1.32-2.5,1.85-4.13,1.85-2.33,0-3.89-1.44-3.89-3.72,0-1.66.6-3.62,4.01-4.13l2.4-.36c1.25-.19,1.51-.43,1.51-1.08,0-.89-.55-1.46-2.21-1.46-1.25,0-1.94.55-2.06,1.78h-3.24c.26-2.69,1.54-4.46,5.62-4.46,3.29,0,5.18,1.39,5.18,3.6v7.13ZM31.58,12.6v-1.58c-.58.36-1.1.53-2.4.72-1.34.19-2.16.67-2.16,1.9,0,.94.62,1.54,1.56,1.54,1.49,0,3-1.01,3-2.57Z"/>
      <path d="M38.83,0v6.12h.05c.58-1.25,2.09-1.99,3.7-1.99,2.66,0,4.44,1.7,4.44,4.18v8.93h-3.36v-7.99c0-1.54-.74-2.28-2.18-2.28-1.54,0-2.64,1.06-2.64,2.86v7.42h-3.36V0h3.36Z"/>
      <path d="M55.46,0v9.31l4.22-4.85h4.13l-4.51,4.94,4.63,7.83h-4.03l-3.05-5.47-1.39,1.44v4.03h-3.36V0h3.36Z"/>
      <path d="M74.06,11.76h-8.76c.12,2.09,1.1,3.12,3,3.12.94,0,1.9-.46,2.16-1.39h3.46c-.74,2.59-2.86,4.08-5.62,4.08-4.22,0-6.36-2.38-6.36-6.96,0-3.77,2.14-6.48,6.1-6.48,3.19,0,6.02,1.82,6.02,7.03v.6ZM70.61,9.58c-.17-1.68-1.15-2.69-2.62-2.69-1.54,0-2.4.94-2.59,2.69h5.21Z"/>
      <path d="M85.44,8.3v8.93h-3.36v-8.09c0-1.42-.77-2.18-2.18-2.18-1.54,0-2.64,1.06-2.64,2.86v7.42h-3.36V4.46h3.22v1.87h.05c.82-1.56,2.23-2.21,3.84-2.21,2.71,0,4.44,1.78,4.44,4.18Z"/>
      <path d="M97.7,8.3v8.93h-3.36v-8.09c0-1.42-.77-2.18-2.18-2.18-1.54,0-2.64,1.06-2.64,2.86v7.42h-3.36V4.46h3.22v1.87h.05c.82-1.56,2.23-2.21,3.84-2.21,2.71,0,4.44,1.78,4.44,4.18Z"/>
      <path d="M109.54,11.76h-8.76c.12,2.09,1.1,3.12,3,3.12.94,0,1.9-.46,2.16-1.39h3.46c-.74,2.59-2.86,4.08-5.62,4.08-4.22,0-6.36-2.38-6.36-6.96,0-3.77,2.14-6.48,6.1-6.48,3.19,0,6.02,1.82,6.02,7.03v.6ZM106.08,9.58c-.17-1.68-1.15-2.69-2.62-2.69-1.54,0-2.4.94-2.59,2.69h5.21Z"/>
      <path d="M121.03,0v17.23h-3.29v-1.61h-.05c-.84,1.44-2.28,1.94-3.7,1.94-3.38,0-5.38-2.81-5.38-6.87s2.21-6.58,5.3-6.58c1.66,0,2.9.72,3.7,1.99h.05V0h3.36ZM117.82,11.14c0-2.57-.96-4.1-2.9-4.1-1.8,0-2.83,1.42-2.83,3.89,0,2.21,1.03,3.89,2.76,3.89,1.85,0,2.98-1.44,2.98-3.67Z"/>
      <path d="M123.69,4.46l2.74,9.41h.05l2.62-9.41h3.55l-4.49,12.94c-.53,1.49-.91,2.4-1.2,3.02-.62,1.3-1.3,1.94-3.55,1.94-.48,0-1.01-.02-1.61-.05v-2.69c.26.02.67.05.84.05,1.34,0,1.75-.55,2.02-1.92l-4.7-13.3h3.74Z"/>
    </g>
  </g>
</svg>